<svg width="66" height="66" viewBox="0 0 66 66" fill="none" xmlns="http://www.w3.org/2000/svg">
<g filter="url(#filter0_f_1544_529)">
<circle cx="33" cy="33" r="32" fill="url(#paint0_linear_1544_529)" fill-opacity="0.4"/>
</g>
<g filter="url(#filter1_i_1544_529)">
<circle cx="33" cy="33" r="29" fill="url(#paint1_linear_1544_529)"/>
</g>
<circle cx="33" cy="33" r="28.9" stroke="url(#paint2_linear_1544_529)" stroke-width="0.2"/>
<mask id="mask0_1544_529" style="mask-type:alpha" maskUnits="userSpaceOnUse" x="4" y="4" width="58" height="58">
<circle cx="33" cy="33" r="29" fill="url(#paint3_linear_1544_529)"/>
</mask>
<g mask="url(#mask0_1544_529)">
<g filter="url(#filter2_f_1544_529)">
<path d="M62 33C62 49.0163 49.0163 62 33 62C16.9837 62 4 49.0163 4 33C4 16.9837 16.9837 4 33 4C49.0163 4 62 16.9837 62 33ZM6.9 33C6.9 47.4146 18.5854 59.1 33 59.1C47.4146 59.1 59.1 47.4146 59.1 33C59.1 18.5854 47.4146 6.9 33 6.9C18.5854 6.9 6.9 18.5854 6.9 33Z" fill="url(#paint4_linear_1544_529)"/>
</g>
<path d="M21.2692 33.1289C21.2692 34.2773 22.1989 35.207 23.3474 35.207H30.9352V42.7949C30.9352 43.9297 31.8513 44.873 32.9997 44.873C34.1481 44.873 35.0778 43.9297 35.0778 42.7949V35.207H42.6657C43.8005 35.207 44.7302 34.2773 44.7302 33.1289C44.7302 31.9941 43.8005 31.0645 42.6657 31.0645H35.0778V23.4766C35.0778 22.3418 34.1481 21.3984 32.9997 21.3984C31.8513 21.3984 30.9352 22.3418 30.9352 23.4766V31.0645H23.3474C22.1989 31.0645 21.2692 31.9941 21.2692 33.1289Z" fill="#48319D"/>
</g>
<defs>
<filter id="filter0_f_1544_529" x="0" y="0" width="66" height="66" filterUnits="userSpaceOnUse" color-interpolation-filters="sRGB">
<feFlood flood-opacity="0" result="BackgroundImageFix"/>
<feBlend mode="normal" in="SourceGraphic" in2="BackgroundImageFix" result="shape"/>
<feGaussianBlur stdDeviation="0.5" result="effect1_foregroundBlur_1544_529"/>
</filter>
<filter id="filter1_i_1544_529" x="4" y="4" width="58.5" height="58.5" filterUnits="userSpaceOnUse" color-interpolation-filters="sRGB">
<feFlood flood-opacity="0" result="BackgroundImageFix"/>
<feBlend mode="normal" in="SourceGraphic" in2="BackgroundImageFix" result="shape"/>
<feColorMatrix in="SourceAlpha" type="matrix" values="0 0 0 0 0 0 0 0 0 0 0 0 0 0 0 0 0 0 127 0" result="hardAlpha"/>
<feOffset dx="1" dy="1"/>
<feGaussianBlur stdDeviation="0.25"/>
<feComposite in2="hardAlpha" operator="arithmetic" k2="-1" k3="1"/>
<feColorMatrix type="matrix" values="0 0 0 0 1 0 0 0 0 1 0 0 0 0 1 0 0 0 1 0"/>
<feBlend mode="normal" in2="shape" result="effect1_innerShadow_1544_529"/>
</filter>
<filter id="filter2_f_1544_529" x="2" y="2" width="62" height="62" filterUnits="userSpaceOnUse" color-interpolation-filters="sRGB">
<feFlood flood-opacity="0" result="BackgroundImageFix"/>
<feBlend mode="normal" in="SourceGraphic" in2="BackgroundImageFix" result="shape"/>
<feGaussianBlur stdDeviation="1" result="effect1_foregroundBlur_1544_529"/>
</filter>
<linearGradient id="paint0_linear_1544_529" x1="12.5" y1="14" x2="51.5" y2="60" gradientUnits="userSpaceOnUse">
<stop/>
<stop offset="1" stop-color="white" stop-opacity="0.76"/>
</linearGradient>
<linearGradient id="paint1_linear_1544_529" x1="18" y1="12" x2="49.5" y2="56.8333" gradientUnits="userSpaceOnUse">
<stop stop-color="#F5F5F9"/>
<stop offset="1" stop-color="#DADFE7"/>
</linearGradient>
<linearGradient id="paint2_linear_1544_529" x1="12.8333" y1="13.8333" x2="47.1667" y2="59.5" gradientUnits="userSpaceOnUse">
<stop stop-color="white"/>
<stop offset="1" stop-color="#AEAEAE"/>
</linearGradient>
<linearGradient id="paint3_linear_1544_529" x1="18" y1="12" x2="49.5" y2="56.8333" gradientUnits="userSpaceOnUse">
<stop stop-color="#F5F5F9"/>
<stop offset="1" stop-color="#DADFE7"/>
</linearGradient>
<linearGradient id="paint4_linear_1544_529" x1="8.79107" y1="14.2008" x2="33" y2="62" gradientUnits="userSpaceOnUse">
<stop stop-color="white" stop-opacity="0"/>
<stop offset="1" stop-color="#BBBFC7"/>
</linearGradient>
</defs>
</svg>
