<svg width="390" height="325" viewBox="0 0 390 325" fill="none" xmlns="http://www.w3.org/2000/svg">
<g clip-path="url(#clip0_50_1336)">
<g filter="url(#filter0_bi_50_1336)">
<path d="M0 44C0 19.6995 19.6995 0 44 0H346C370.301 0 390 19.6995 390 44V281C390 305.301 370.301 325 346 325H44C19.6995 325 0 305.301 0 281V44Z" fill="url(#paint0_linear_50_1336)" fill-opacity="0.26"/>
</g>
<g filter="url(#filter1_f_50_1336)">
<circle cx="396" cy="190" r="125" fill="url(#paint1_angular_50_1336)"/>
</g>
<g filter="url(#filter2_f_50_1336)">
<ellipse cx="191" cy="-17" rx="143" ry="16" fill="#C427FB" fill-opacity="0.5"/>
</g>
<g filter="url(#filter3_f_50_1336)">
<path d="M334 -7.43791C334 -1.67321 269.977 9.53674e-07 191 9.53674e-07C112.023 9.53674e-07 48 -1.67321 48 -7.43791C48 -13.2026 112.023 -7 191 -7C269.977 -7 334 -13.2026 334 -7.43791Z" fill="#E0D9FF"/>
</g>
<g filter="url(#filter4_d_50_1336)">
<line y1="48.5" x2="390" y2="48.5" stroke="white" stroke-opacity="0.3" style="mix-blend-mode:overlay" shape-rendering="crispEdges"/>
</g>
<path d="M171 10.5C171 9.11929 172.119 8 173.5 8H216.5C217.881 8 219 9.11929 219 10.5C219 11.8807 217.881 13 216.5 13H173.5C172.119 13 171 11.8807 171 10.5Z" fill="black" fill-opacity="0.3"/>
</g>
<defs>
<filter id="filter0_bi_50_1336" x="-50" y="-50" width="490" height="425" filterUnits="userSpaceOnUse" color-interpolation-filters="sRGB">
<feFlood flood-opacity="0" result="BackgroundImageFix"/>
<feGaussianBlur in="BackgroundImageFix" stdDeviation="25"/>
<feComposite in2="SourceAlpha" operator="in" result="effect1_backgroundBlur_50_1336"/>
<feBlend mode="normal" in="SourceGraphic" in2="effect1_backgroundBlur_50_1336" result="shape"/>
<feColorMatrix in="SourceAlpha" type="matrix" values="0 0 0 0 0 0 0 0 0 0 0 0 0 0 0 0 0 0 127 0" result="hardAlpha"/>
<feOffset dy="1"/>
<feComposite in2="hardAlpha" operator="arithmetic" k2="-1" k3="1"/>
<feColorMatrix type="matrix" values="0 0 0 0 1 0 0 0 0 1 0 0 0 0 1 0 0 0 1 0"/>
<feBlend mode="overlay" in2="shape" result="effect2_innerShadow_50_1336"/>
</filter>
<filter id="filter1_f_50_1336" x="131" y="-75" width="530" height="530" filterUnits="userSpaceOnUse" color-interpolation-filters="sRGB">
<feFlood flood-opacity="0" result="BackgroundImageFix"/>
<feBlend mode="normal" in="SourceGraphic" in2="BackgroundImageFix" result="shape"/>
<feGaussianBlur stdDeviation="70" result="effect1_foregroundBlur_50_1336"/>
</filter>
<filter id="filter2_f_50_1336" x="-12" y="-93" width="406" height="152" filterUnits="userSpaceOnUse" color-interpolation-filters="sRGB">
<feFlood flood-opacity="0" result="BackgroundImageFix"/>
<feBlend mode="normal" in="SourceGraphic" in2="BackgroundImageFix" result="shape"/>
<feGaussianBlur stdDeviation="30" result="effect1_foregroundBlur_50_1336"/>
</filter>
<filter id="filter3_f_50_1336" x="38" y="-19.8912" width="306" height="29.8912" filterUnits="userSpaceOnUse" color-interpolation-filters="sRGB">
<feFlood flood-opacity="0" result="BackgroundImageFix"/>
<feBlend mode="normal" in="SourceGraphic" in2="BackgroundImageFix" result="shape"/>
<feGaussianBlur stdDeviation="5" result="effect1_foregroundBlur_50_1336"/>
</filter>
<filter id="filter4_d_50_1336" x="0" y="48" width="390" height="2" filterUnits="userSpaceOnUse" color-interpolation-filters="sRGB">
<feFlood flood-opacity="0" result="BackgroundImageFix"/>
<feColorMatrix in="SourceAlpha" type="matrix" values="0 0 0 0 0 0 0 0 0 0 0 0 0 0 0 0 0 0 127 0" result="hardAlpha"/>
<feOffset dy="1"/>
<feComposite in2="hardAlpha" operator="out"/>
<feColorMatrix type="matrix" values="0 0 0 0 0 0 0 0 0 0 0 0 0 0 0 0 0 0 0.2 0"/>
<feBlend mode="overlay" in2="BackgroundImageFix" result="effect1_dropShadow_50_1336"/>
<feBlend mode="normal" in="SourceGraphic" in2="effect1_dropShadow_50_1336" result="shape"/>
</filter>
<linearGradient id="paint0_linear_50_1336" x1="9.99998" y1="-20.3843" x2="80.5683" y2="363.78" gradientUnits="userSpaceOnUse">
<stop stop-color="#2E335A"/>
<stop offset="1" stop-color="#1C1B33"/>
</linearGradient>
<radialGradient id="paint1_angular_50_1336" cx="0" cy="0" r="1" gradientUnits="userSpaceOnUse" gradientTransform="translate(396 190) rotate(90) scale(125)">
<stop offset="0.138937" stop-color="#612FAB" stop-opacity="0"/>
<stop offset="0.359865" stop-color="#612FAB"/>
<stop offset="0.627936" stop-color="#612FAB" stop-opacity="0"/>
<stop offset="0.868159" stop-color="#612FAB"/>
</radialGradient>
<clipPath id="clip0_50_1336">
<path d="M0 0H390V281C390 305.301 370.301 325 346 325H44C19.6995 325 0 305.301 0 281V0Z" fill="white"/>
</clipPath>
</defs>
</svg>
