<svg width="390" height="100" viewBox="0 0 390 100" fill="none" xmlns="http://www.w3.org/2000/svg">
<g clip-path="url(#clip0_68_4384)">
<g filter="url(#filter0_b_68_4384)">
<path d="M0 12C0 12 76.0769 27.9822 127 32C153.339 34.0782 168.554 35 195 35C221.446 35 235.661 34.0782 262 32C312.923 27.9822 390 12 390 12V100H0V12Z" fill="url(#paint0_linear_68_4384)" fill-opacity="0.26"/>
<path d="M0 12L0.0513978 11.7553L-0.25 11.692V12V100V100.25H0H390H390.25V100V12V11.6928L389.949 11.7552L390 12C389.949 11.7552 389.949 11.7553 389.948 11.7554L389.946 11.7559L389.935 11.7581L389.893 11.7668L389.727 11.8011C389.58 11.8315 389.36 11.8765 389.072 11.9355C388.495 12.0535 387.643 12.2271 386.539 12.4495C384.333 12.8943 381.124 13.5342 377.113 14.3146C369.093 15.8755 357.868 17.9985 345.053 20.2471C319.42 24.7446 287.43 29.7428 261.98 31.7508C235.644 33.8287 221.437 34.75 195 34.75C168.563 34.75 153.355 33.8286 127.02 31.7508C101.571 29.7428 69.8304 24.7446 44.4475 20.2471C31.757 17.9986 20.6577 15.8756 12.731 14.3147C8.76767 13.5343 5.59756 12.8944 3.41838 12.4496C2.32879 12.2273 1.48694 12.0537 0.917538 11.9357C0.632837 11.8767 0.416248 11.8316 0.270862 11.8012L0.10657 11.7669L0.0651988 11.7582L0.054834 11.7561L0.0522476 11.7555C0.0516779 11.7554 0.0513978 11.7553 0 12Z" stroke="#7582F4" stroke-opacity="0.5" stroke-width="0.5"/>
</g>
<g filter="url(#filter1_d_68_4384)">
<path d="M174 0H216C248 0 257.501 24.1398 267.732 48.6985C278.325 74.1247 289 100 324 100H66.0001C101 100 111.675 74.1247 122.268 48.6985C132.499 24.1398 142 0 174 0Z" fill="url(#paint1_linear_68_4384)"/>
<path d="M174 0.25H216C231.923 0.25 242.229 6.24974 249.838 15.3006C257.21 24.0697 262.053 35.7041 266.994 47.575C267.163 47.9813 267.332 48.3879 267.502 48.7947L267.604 49.0418C272.863 61.6652 278.18 74.4274 286.525 84.0479C293.572 92.1732 302.777 98.0545 315.909 99.75H74.0914C87.2236 98.0545 96.4277 92.1732 103.476 84.0479C111.821 74.4273 117.137 61.6651 122.396 49.0417L122.499 48.7947C122.668 48.3879 122.837 47.9813 123.006 47.5751C127.947 35.7041 132.79 24.0697 140.162 15.3006C147.771 6.24974 158.077 0.25 174 0.25Z" stroke="#7582F4" stroke-opacity="0.5" stroke-width="0.5"/>
</g>
</g>
<defs>
<filter id="filter0_b_68_4384" x="-50.5" y="-38.616" width="491" height="189.116" filterUnits="userSpaceOnUse" color-interpolation-filters="sRGB">
<feFlood flood-opacity="0" result="BackgroundImageFix"/>
<feGaussianBlur in="BackgroundImageFix" stdDeviation="25"/>
<feComposite in2="SourceAlpha" operator="in" result="effect1_backgroundBlur_68_4384"/>
<feBlend mode="normal" in="SourceGraphic" in2="effect1_backgroundBlur_68_4384" result="shape"/>
</filter>
<filter id="filter1_d_68_4384" x="62.0001" y="0" width="266" height="108" filterUnits="userSpaceOnUse" color-interpolation-filters="sRGB">
<feFlood flood-opacity="0" result="BackgroundImageFix"/>
<feColorMatrix in="SourceAlpha" type="matrix" values="0 0 0 0 0 0 0 0 0 0 0 0 0 0 0 0 0 0 127 0" result="hardAlpha"/>
<feOffset dy="4"/>
<feGaussianBlur stdDeviation="2"/>
<feComposite in2="hardAlpha" operator="out"/>
<feColorMatrix type="matrix" values="0 0 0 0 0.458824 0 0 0 0 0.509804 0 0 0 0 0.956863 0 0 0 1 0"/>
<feBlend mode="normal" in2="BackgroundImageFix" result="effect1_dropShadow_68_4384"/>
<feBlend mode="normal" in="SourceGraphic" in2="effect1_dropShadow_68_4384" result="shape"/>
</filter>
<linearGradient id="paint0_linear_68_4384" x1="271.51" y1="12" x2="271.51" y2="100" gradientUnits="userSpaceOnUse">
<stop stop-color="#3A3A6A"/>
<stop offset="1" stop-color="#25244C"/>
</linearGradient>
<linearGradient id="paint1_linear_68_4384" x1="245.615" y1="100" x2="245.615" y2="0" gradientUnits="userSpaceOnUse">
<stop stop-color="#262C51"/>
<stop offset="1" stop-color="#3E3F74"/>
</linearGradient>
<clipPath id="clip0_68_4384">
<rect width="390" height="100" fill="white"/>
</clipPath>
</defs>
</svg>
