<svg width="20" height="20" viewBox="0 0 164 164" fill="none" xmlns="http://www.w3.org/2000/svg">
    <defs>
        <filter id="grayscale">
            <feColorMatrix type="saturate" values="0" />
        </filter>
    </defs>
    <g filter="url(#grayscale)">
        <path
            d="M82 127.92C124.758 127.92 158.595 85.8278 160.012 84.0369L161.622 82L160.012 79.9631C158.595 78.1722 124.758 36.08 82 36.08C39.2419 36.08 5.40544 78.1722 3.98848 79.9631L2.378 82L3.98848 84.0369C5.40544 85.8278 39.2419 127.92 82 127.92ZM82 42.64C116.42 42.64 145.862 73.6688 153.143 82C145.871 90.3378 116.47 121.36 82 121.36C47.5797 121.36 18.1384 90.3312 10.8568 82C18.1286 73.6622 47.5305 42.64 82 42.64Z"
            fill="gray" />
        <path
            d="M82 111.52C98.2786 111.52 111.52 98.2754 111.52 82C111.52 65.7246 98.2786 52.48 82 52.48C65.7214 52.48 52.48 65.7246 52.48 82C52.48 98.2754 65.7214 111.52 82 111.52ZM82 59.04C94.6575 59.04 104.96 69.3392 104.96 82C104.96 94.6608 94.6575 104.96 82 104.96C69.3425 104.96 59.04 94.6608 59.04 82C59.04 69.3392 69.3425 59.04 82 59.04Z"
            fill="gray" />
    </g>
</svg>